<?xml version="1.0" encoding="UTF-8"?>
<svg width="32px" height="32px" viewBox="0 0 32 32" version="1.1" xmlns="http://www.w3.org/2000/svg" xmlns:xlink="http://www.w3.org/1999/xlink">
    <title>id-doc-32px</title>
    <g id="id-doc-32px" stroke="none" stroke-width="1" fill="none" fill-rule="evenodd">
        <g id="Group">
            <path d="M12.819426,-5.17920154e-16 L19.180574,5.17920154e-16 C23.6381677,-3.00926524e-16 25.2545989,0.464128056 26.8842285,1.33566352 C28.5138581,2.20719898 29.792801,3.48614185 30.6643365,5.11577148 C31.5358719,6.74540111 32,8.3618323 32,12.819426 L32,19.180574 C32,23.6381677 31.5358719,25.2545989 30.6643365,26.8842285 C29.792801,28.5138581 28.5138581,29.792801 26.8842285,30.6643365 C25.2545989,31.5358719 23.6381677,32 19.180574,32 L12.819426,32 C8.3618323,32 6.74540111,31.5358719 5.11577148,30.6643365 C3.48614185,29.792801 2.20719898,28.5138581 1.33566352,26.8842285 C0.464128056,25.2545989 2.00617683e-16,23.6381677 -3.45280103e-16,19.180574 L3.45280103e-16,12.819426 C-2.00617683e-16,8.3618323 0.464128056,6.74540111 1.33566352,5.11577148 C2.20719898,3.48614185 3.48614185,2.20719898 5.11577148,1.33566352 C6.74540111,0.464128056 8.3618323,3.00926524e-16 12.819426,-5.17920154e-16 Z" id="Rectangle-5" fill="#CFD9E5"></path>
            <path d="M24,9 L8,9 C6.92,9 6,9.88 6,11 L6,20.6 C6,21.68 6.92,22.6 8,22.6 L24,22.6 C25.12,22.6 26,21.72 26,20.6 L26,11 C26,9.88 25.12,9 24,9 Z M15.52,20.28 L12.64,20.28 L9.76,20.28 C9.12,20.28 8.64,19.6 8.64,18.92 C8.68,17.92 9.72,17.32 10.8,16.84 C11.56,16.52 11.68,16.2 11.68,15.88 C11.68,15.56 11.48,15.24 11.2,15 C10.76,14.6 10.52,14 10.52,13.36 C10.52,12.08 11.28,11.04 12.6,11.04 C13.92,11.04 14.68,12.12 14.68,13.36 C14.68,14.04 14.44,14.64 14,15 C13.72,15.24 13.52,15.52 13.52,15.88 C13.52,16.2 13.6,16.52 14.4,16.8 C15.48,17.28 16.52,17.92 16.56,18.92 C16.68,19.6 16.16,20.28 15.52,20.28 Z M23.32,17.96 C23.32,18.32 23,18.64 22.64,18.64 L19.64,18.64 C19.28,18.64 18.96,18.36 18.96,17.96 L18.96,16.96 C18.96,16.6 19.28,16.28 19.64,16.28 L22.64,16.28 C23,16.28 23.32,16.56 23.32,16.96 L23.32,17.96 Z M23.32,14.32 C23.32,14.68 23,15 22.64,15 L17.68,15 C17.32,15 17,14.72 17,14.32 L17,13.32 C17,12.96 17.32,12.64 17.68,12.64 L22.68,12.64 C23.04,12.64 23.36,12.92 23.36,13.32 L23.36,14.32 L23.32,14.32 Z" id="Shape" fill="#38485D" fill-rule="nonzero"></path>
        </g>
    </g>
</svg>