<?xml version="1.0" encoding="UTF-8"?>
<svg width="48px" height="48px" viewBox="0 0 48 48" version="1.1" xmlns="http://www.w3.org/2000/svg" xmlns:xlink="http://www.w3.org/1999/xlink">

    <title>Artboard</title>
    <desc>Created with Sketch.</desc>
    <defs>
        <path d="M24,0 C10.745166,0 0,10.745166 0,24 C0,37.254834 10.745166,48 24,48 C37.254834,48 48,37.254834 48,24 C48,17.6348042 45.4714358,11.5303103 40.9705627,7.02943725 C36.4696897,2.52856417 30.3651958,0 24,0 Z" id="path-1"></path>
        <filter x="-9.4%" y="-9.4%" width="118.8%" height="118.8%" filterUnits="objectBoundingBox" id="filter-2">
            <feOffset dx="0" dy="0" in="SourceAlpha" result="shadowOffsetOuter1"></feOffset>
            <feGaussianBlur stdDeviation="1.5" in="shadowOffsetOuter1" result="shadowBlurOuter1"></feGaussianBlur>
            <feComposite in="shadowBlurOuter1" in2="SourceAlpha" operator="out" result="shadowBlurOuter1"></feComposite>
            <feColorMatrix values="0 0 0 0 0.137   0 0 0 0 0.859   0 0 0 0 0.655  0 0 0 0.5 0" type="matrix" in="shadowBlurOuter1"></feColorMatrix>
        </filter>
    </defs>
    <g id="Artboard" stroke="none" stroke-width="1" fill="none" fill-rule="evenodd">
        <g id="icon-ok">
            <g id="Shape" fill-rule="nonzero">
                <use fill="black" fill-opacity="1" filter="url(#filter-2)" xlink:href="#path-1"></use>
                <path stroke="#23DBA7" stroke-width="4" d="M24,2 C11.8497355,2 2,11.8497355 2,24 C2,36.1502645 11.8497355,46 24,46 C36.1502645,46 46,36.1502645 46,24 C46,18.1652372 43.6821495,12.5694511 39.5563492,8.44365081 C35.4305489,4.31785049 29.8347628,2 24,2 Z" stroke-linejoin="square" fill-opacity="0.15" fill="#23DBA7" fill-rule="evenodd"></path>
            </g>
            <path d="M21.3131868,31.6747579 C20.961772,32.0386095 20.4887812,32.2448921 19.9945055,32.25 C19.4835767,32.2560207 18.9913131,32.0490925 18.6263736,31.6747579 L13.5,26.2399814 L16.2472527,23.416198 L20.0494505,27.4419584 L31.8626374,15.75 L34.5,18.6312942 L21.3131868,31.6747579 Z" id="Path" fill="#23DBA7"></path>
        </g>
    </g>
</svg>
